<svg xmlns="http://www.w3.org/2000/svg" width="31" height="33" viewBox="0 0 31 33">
    <g fill="none" fill-rule="evenodd">
        <g fill="#000">
            <path d="M29.032 18.444c.637-.979.955-2.056.955-3.233 0-1.362-.493-2.545-1.482-3.55-.988-1.005-2.16-1.507-3.512-1.507H21.56c.624-1.31.937-2.579.937-3.808 0-1.547-.228-2.776-.683-3.688-.455-.913-1.119-1.584-1.99-2.014C18.95.214 17.969 0 16.876 0c-.663 0-1.248.245-1.756.734-.559.555-.962 1.27-1.21 2.142-.246.872-.445 1.709-.594 2.508-.15.8-.38 1.365-.693 1.696-.637.7-1.333 1.547-2.088 2.538-1.313 1.732-2.204 2.757-2.672 3.074H2.517c-.69 0-1.278.249-1.766.744-.488.496-.732 1.094-.732 1.795v12.692c0 .7.244 1.298.732 1.794s1.076.744 1.766.744h5.618c.287 0 1.184.265 2.693.794 1.6.568 3.008 1.001 4.224 1.299 1.216.297 2.449.446 3.697.446h2.517c1.834 0 3.31-.532 4.429-1.597 1.118-1.064 1.671-2.515 1.659-4.353.78-1.018 1.17-2.195 1.17-3.53 0-.29-.02-.575-.058-.853.494-.885.741-1.837.741-2.855 0-.476-.058-.932-.175-1.368zM3.827 27.546c-.247.251-.54.377-.878.377-.338 0-.631-.126-.878-.377-.247-.25-.371-.548-.371-.892s.123-.641.37-.893c.248-.251.54-.377.879-.377.338 0 .63.126.878.377.247.251.37.549.37.893s-.123.641-.37.892zm22.968-10.621c-.27.583-.605.881-1.007.894.188.216.345.517.47.904.126.387.188.74.188 1.057 0 .875-.332 1.63-.997 2.264.226.406.34.844.34 1.314 0 .47-.11.936-.33 1.399-.22.462-.518.795-.894.998.063.381.094.736.094 1.066 0 2.12-1.205 3.179-3.614 3.179h-2.277c-1.644 0-3.79-.463-6.438-1.39-.062-.025-.244-.092-.545-.2l-.669-.237c-.144-.051-.364-.124-.659-.219-.295-.095-.533-.165-.715-.21-.182-.044-.389-.085-.62-.123-.233-.038-.43-.057-.594-.057-.784.01-1.372.01-1.763 0-.584-.014-.872-.35-.865-1.01V16.4c.067-.6.433-.9 1.1-.9h1.528c.201 0 .424-.175.669-.289.244-.114.495-.285.752-.514.258-.228.5-.454.725-.676.226-.222.477-.501.753-.837.276-.337.493-.606.65-.81.156-.202.354-.462.592-.78.239-.317.383-.507.433-.57.69-.864 1.173-1.44 1.45-1.733.514-.545.887-1.24 1.12-2.084.232-.844.423-1.64.573-2.389.15-.749.255-1.818.716-1.818 1.539 0 2.007.304 2.409.9.401.596.602 1.711.602 2.955 0 .748-.302 1.767-.904 3.054-.602 1.289-.903 2.055-.903 2.791h6.625c.628 0 1.32.291 1.81.78.49.488.6 1.255.6 1.902 0 .444-.135.958-.405 1.543z" transform="translate(1)"/>
        </g>
    </g>
</svg>
