<svg xmlns="http://www.w3.org/2000/svg" width="28" height="28" viewBox="0 0 28 28">
    <g fill="none" fill-rule="evenodd">
        <g fill="#000" fill-rule="nonzero">
            <g>
                <g>
                    <path d="M17.904 12.758c-2.842 0-5.146 2.304-5.146 5.146 0 2.843 2.304 5.147 5.146 5.147 2.843 0 5.147-2.304 5.147-5.147 0-2.842-2.304-5.146-5.147-5.146zm0 7.72c-1.42 0-2.573-1.152-2.573-2.574 0-1.42 1.152-2.573 2.573-2.573 1.422 0 2.573 1.152 2.573 2.573 0 1.422-1.151 2.573-2.573 2.573zM5.168.022C2.326.022.022 2.326.022 5.168s2.304 5.146 5.146 5.146 5.146-2.304 5.146-5.146S8.01.022 5.168.022zm0 7.72c-1.421 0-2.573-1.153-2.573-2.574 0-1.421 1.152-2.573 2.573-2.573s2.573 1.152 2.573 2.573S6.59 7.741 5.168 7.741zM2.166 20.907c-.503-.503-.503-1.317 0-1.82L19.087 2.166c.503-.503 1.317-.503 1.82 0 .502.502.502 1.317 0 1.82L3.985 20.905c-.502.503-1.317.503-1.82 0z" transform="translate(2 2) translate(.27 .27)"/>
                </g>
            </g>
        </g>
    </g>
</svg>
