<svg xmlns="http://www.w3.org/2000/svg" width="28" height="28" viewBox="0 0 28 28">
    <g fill="none" fill-rule="evenodd">
        <g fill="#000" fill-rule="nonzero" stroke="#000" stroke-width=".6">
            <g>
                <path d="M11.846.403c2.86 0 5.1.652 6.721 1.955C20.19 3.66 21 5.452 21 7.732s-.81 4.067-2.433 5.36c-1.621 1.293-3.862 1.94-6.721 1.94H5.829v2.209h7.619c.57 0 1.031.461 1.031 1.031 0 .57-.462 1.032-1.031 1.032h-7.62v1.292c0 .654-.53 1.184-1.184 1.184-.654 0-1.184-.53-1.184-1.184v-1.292H1.032c-.57 0-1.032-.462-1.032-1.032 0-.57.462-1.031 1.032-1.031H3.46v-2.212H1c-.552 0-.999-.448-.999-1 0-.55.447-.998.999-.998H3.46V2.403c0-1.104.896-2 2-2h6.386zm-.064 1.955H5.829v10.688h5.953c2.22 0 3.916-.463 5.09-1.39 1.173-.926 1.76-2.234 1.76-3.924 0-1.73-.587-3.058-1.76-3.985-1.174-.926-2.87-1.39-5.09-1.39h0z" transform="translate(4 3)"/>
            </g>
        </g>
    </g>
</svg>
