<?xml version="1.0" encoding="utf-8"?>
<!-- Generator: Adobe Illustrator 24.1.1, SVG Export Plug-In . SVG Version: 6.00 Build 0)  -->
<svg version="1.1" id="Слой_1" xmlns="http://www.w3.org/2000/svg" xmlns:xlink="http://www.w3.org/1999/xlink" x="0px" y="0px"
	 viewBox="0 0 16.5 25" style="enable-background:new 0 0 16.5 25;" xml:space="preserve">
<style type="text/css">
	.st0{opacity:0.75;}
	.st1{fill-rule:evenodd;clip-rule:evenodd;}
</style>
<g class="st0">
	<g>
		<path class="st1" d="M8.5,20c0.7,0,1.3,0.2,1.8,0.7c0.5,0.5,0.7,1.1,0.7,1.8c0,0.7-0.2,1.3-0.7,1.8C9.8,24.8,9.2,25,8.5,25
			c-0.7,0-1.3-0.2-1.8-0.7C6.3,23.8,6,23.2,6,22.5c0-0.7,0.2-1.3,0.7-1.8C7.2,20.2,7.8,20,8.5,20L8.5,20z M8.4,0
			c2.5,0,4.5,0.5,5.9,1.6c1.5,1,2.2,2.5,2.2,4.3c0,0.9-0.2,1.7-0.5,2.4c-0.3,0.7-0.7,1.3-1.1,1.7c-0.3,0.3-0.6,0.6-0.9,0.9l-0.8,0.7
			c-0.9,0.8-1.6,1.5-2.1,2.1c-0.3,0.4-0.5,1.1-0.6,1.8l0,0.6c0,0.6-0.4,1-1,1H7.7c-0.6,0-1-0.4-1-1c0-0.1,0-0.2,0-0.2
			c0-0.7,0.6-1.9,0.8-2.2C7.8,13,8.2,12.5,8.6,12c0.4-0.4,0.8-0.8,1.3-1.3l0.4-0.4c0.9-0.8,1.6-1.4,2-2c0.4-0.6,0.7-1.2,0.7-2
			c0-1.1-0.4-1.9-1.3-2.6c-0.9-0.6-2.1-1-3.6-1c-2.4,0-4.3,0.7-5.7,2.1C2.3,5.1,1.7,5.2,1.6,5.1L0.3,4.2c-0.3-0.2-0.4-1-0.3-1.2
			C0.9,2.2,2,1.5,3.2,1C4.7,0.3,6.4,0,8.4,0z"/>
	</g>
</g>
</svg>
